<?xml version="1.0" encoding="UTF-8"?>
<!-- Generator: visioncortex VTracer 0.6.4 -->
<svg version="1.1" xmlns="http://www.w3.org/2000/svg" width="388" height="266">
<path d="M0 0 C0.88 0.12 1.76 0.24 2.67 0.36 C3.51 0.48 4.35 0.61 5.22 0.74 C5.96 0.85 6.71 0.96 7.47 1.07 C10.94 1.94 13.77 2.99 16.94 4.69 C18.45 7.66 18.45 7.66 19.37 11.37 C19.55 12.06 19.73 12.74 19.91 13.44 C20.5 15.73 21.04 18.03 21.59 20.32 C22 21.97 22.41 23.61 22.83 25.25 C23.96 29.71 25.05 34.18 26.13 38.65 C27.27 43.33 28.44 48.01 29.6 52.68 C31.56 60.53 33.49 68.39 35.41 76.25 C37.87 86.33 40.36 96.4 42.87 106.47 C45.03 115.14 47.17 123.81 49.31 132.48 C50 135.26 50.68 138.04 51.37 140.82 C52.46 145.2 53.53 149.58 54.6 153.96 C54.99 155.57 55.38 157.17 55.78 158.78 C56.33 160.97 56.86 163.17 57.39 165.37 C57.69 166.6 57.99 167.82 58.3 169.09 C60.06 179.01 60.06 179.01 56.94 183.69 C52.19 185.1 48.99 184.39 44.38 182.81 C25.11 176.32 2.85 178.43 -15.56 186.81 C-28.29 193.7 -34.9 204.13 -41.06 216.69 C-42.06 217.69 -42.06 217.69 -45.62 218.12 C-50.29 218.08 -52.58 216.16 -56.07 213.28 C-65.59 205.67 -78.21 203.55 -90.06 204.69 C-106.42 207.11 -121.23 213.24 -134.06 223.69 C-134.67 224.15 -135.27 224.62 -135.89 225.09 C-138.53 227.17 -140.54 229.3 -142.5 232 C-145.06 234.69 -145.06 234.69 -148.62 235.31 C-152.63 234.58 -153.52 233.76 -156.06 230.69 C-157.02 228.32 -157.02 228.32 -157.68 225.66 C-157.94 224.64 -158.2 223.63 -158.46 222.59 C-158.73 221.48 -159 220.37 -159.27 219.23 C-159.56 218.06 -159.86 216.89 -160.16 215.69 C-160.96 212.49 -161.74 209.29 -162.53 206.08 C-163.35 202.73 -164.18 199.38 -165.02 196.04 C-166.41 190.42 -167.8 184.79 -169.18 179.17 C-171.13 171.23 -173.1 163.3 -175.07 155.36 C-177.85 144.16 -180.62 132.96 -183.37 121.75 C-183.78 120.08 -183.78 120.08 -184.2 118.38 C-184.45 117.38 -184.7 116.37 -184.95 115.34 C-185.17 114.46 -185.38 113.58 -185.61 112.67 C-186.06 110.69 -186.06 110.69 -186.06 109.69 C-184.56 109.29 -184.56 109.29 -183.03 108.88 C-181.68 108.53 -180.34 108.17 -179 107.81 C-178.01 107.55 -178.01 107.55 -177.01 107.29 C-176.03 107.02 -176.03 107.02 -175.03 106.76 C-174.44 106.6 -173.84 106.44 -173.23 106.28 C-170.17 105.44 -167.12 104.56 -164.06 103.69 C-161.06 115.61 -158.06 127.54 -155.07 139.47 C-153.68 145 -152.28 150.54 -150.89 156.08 C-149.54 161.42 -148.2 166.76 -146.86 172.11 C-146.35 174.15 -145.84 176.19 -145.32 178.23 C-144.6 181.08 -143.89 183.93 -143.17 186.79 C-142.96 187.63 -142.74 188.48 -142.52 189.35 C-142.33 190.13 -142.14 190.91 -141.94 191.71 C-141.77 192.39 -141.6 193.06 -141.42 193.76 C-141.06 195.69 -141.06 195.69 -141.06 199.69 C-140.41 199.26 -139.75 198.84 -139.07 198.4 C-116.05 184.21 -91.48 178.73 -65.06 184.69 C-64.4 185.02 -63.74 185.35 -63.06 185.69 C-67.15 169.06 -71.25 152.44 -75.37 135.83 C-77.29 128.11 -79.19 120.4 -81.09 112.68 C-82.74 105.95 -84.4 99.22 -86.08 92.5 C-86.96 88.94 -87.84 85.38 -88.71 81.82 C-89.68 77.84 -90.68 73.86 -91.67 69.89 C-91.96 68.71 -92.24 67.53 -92.53 66.31 C-92.95 64.68 -92.95 64.68 -93.37 63.03 C-93.6 62.09 -93.83 61.15 -94.07 60.18 C-95.64 56.25 -98.02 54.25 -101.69 52.27 C-111.61 48.18 -120.39 46.54 -131.06 46.69 C-131.34 45.43 -131.62 44.18 -131.9 42.89 C-132.27 41.24 -132.63 39.59 -133 37.94 C-133.18 37.11 -133.36 36.29 -133.55 35.44 C-133.73 34.64 -133.91 33.84 -134.09 33.02 C-134.25 32.28 -134.41 31.55 -134.58 30.79 C-135.05 28.75 -135.55 26.72 -136.06 24.69 C-119.35 24.25 -106.25 25.13 -91.06 32.69 C-90.53 32 -90 31.31 -89.45 30.6 C-74.48 11.72 -58.39 3.08 -34.62 -0.56 C-22.88 -1.91 -11.67 -1.59 0 0 Z M-69.44 40.31 C-70.69 41.74 -71.9 43.19 -73.06 44.69 C-73.65 45.44 -74.24 46.19 -74.85 46.96 C-77.83 53.66 -73.82 63.2 -72.1 69.98 C-71.8 71.19 -71.5 72.4 -71.19 73.65 C-70.36 76.94 -69.53 80.24 -68.7 83.54 C-67.83 86.99 -66.97 90.45 -66.1 93.9 C-64.47 100.43 -62.83 106.96 -61.18 113.49 C-59.31 120.93 -57.45 128.37 -55.58 135.81 C-51.75 151.1 -47.91 166.4 -44.06 181.69 C-43.35 181.07 -43.35 181.07 -42.62 180.45 C-42 179.91 -41.37 179.37 -40.72 178.82 C-39.8 178.02 -39.8 178.02 -38.85 177.21 C-21.34 162.3 -1.9 157.8 20.6 157.08 C21.7 157.04 22.8 157 23.93 156.96 C26.6 156.86 29.27 156.77 31.94 156.69 C23.89 123.88 15.81 91.07 7.63 58.3 C6.88 55.26 6.12 52.23 5.37 49.2 C4.48 45.62 3.58 42.04 2.69 38.47 C2.2 36.52 1.72 34.57 1.23 32.62 C0.94 31.47 0.66 30.31 0.36 29.13 C0.11 28.12 -0.15 27.11 -0.4 26.07 C-0.98 23.7 -0.98 23.7 -2.06 21.69 C-24.65 14.63 -53.98 23.4 -69.44 40.31 Z " fill="#FFFFFF" transform="translate(329.0625,26.3125)"/>
<path d="M0 0 C0.62 0.44 1.23 0.88 1.87 1.33 C13.59 10.3 20.64 25.78 23 40 C24.54 57.35 21.55 73.74 10.82 87.86 C8.64 90.35 6.37 92.69 4 95 C3.41 95.62 2.82 96.25 2.21 96.89 C-2 101.02 -6.78 103.66 -12 106.31 C-13 106.82 -13 106.82 -14.01 107.34 C-28.12 114.18 -44.43 114.51 -59.31 110 C-71.55 105.62 -81.59 98.98 -90 89 C-90 88.34 -90 87.68 -90 87 C-99.99 91.94 -109.91 97 -119.74 102.24 C-121.81 103.34 -123.87 104.44 -125.94 105.53 C-132.12 108.82 -138.28 112.13 -144.38 115.58 C-145.76 116.36 -145.76 116.36 -147.17 117.16 C-148.84 118.11 -150.51 119.07 -152.16 120.04 C-152.89 120.45 -153.61 120.86 -154.36 121.29 C-155.28 121.83 -155.28 121.83 -156.22 122.37 C-158.55 123.19 -159.73 122.93 -162 122 C-163.74 119.38 -163.74 119.38 -165.31 116.12 C-165.84 115.06 -166.38 113.99 -166.93 112.88 C-168 110 -168 110 -167 107 C-164.76 105.6 -162.58 104.38 -160.24 103.19 C-159.54 102.83 -158.85 102.47 -158.13 102.09 C-155.86 100.91 -153.59 99.73 -151.31 98.56 C-148.97 97.34 -146.64 96.12 -144.3 94.9 C-142.74 94.09 -141.18 93.27 -139.62 92.46 C-133.19 89.11 -126.8 85.68 -120.44 82.19 C-119.6 81.73 -118.76 81.27 -117.89 80.79 C-114.75 79.07 -111.6 77.34 -108.49 75.57 C-107.68 75.11 -106.87 74.65 -106.04 74.18 C-105.31 73.76 -104.58 73.34 -103.83 72.91 C-102 72 -102 72 -100 72 C-100.22 71.28 -100.43 70.56 -100.66 69.82 C-105.53 51.71 -104 33.96 -95.01 17.39 C-86.03 2.22 -72.24 -7.79 -55.29 -12.44 C-35.57 -17.25 -15.87 -12.16 0 0 Z M-69 13 C-69.87 13.58 -70.73 14.16 -71.62 14.75 C-79.79 22.48 -85.51 33.41 -86.24 44.69 C-86.6 58.62 -83.98 68.99 -75 80 C-74.25 80.96 -74.25 80.96 -73.48 81.93 C-66.78 89.55 -55.08 95.06 -45 96 C-38.82 96.53 -38.82 96.53 -33 95 C-33.79 88.18 -35.59 81.72 -37.45 75.12 C-37.67 74.26 -37.9 73.4 -38.14 72.52 C-38.35 71.75 -38.56 70.97 -38.78 70.18 C-39.05 67.46 -38.47 66.28 -37 64 C-25.06 52.23 -10.18 44.7 5 38 C1.59 25.77 -4.81 15.78 -15.89 9.31 C-33.73 -0.02 -52.65 0.44 -69 13 Z M3 62 C0.93 63.08 -1.13 64.16 -3.19 65.25 C-4.34 65.85 -5.48 66.46 -6.67 67.08 C-9.72 68.84 -12.32 70.72 -15 73 C-14.72 74.79 -14.42 76.58 -14.12 78.38 C-13.96 79.37 -13.8 80.37 -13.63 81.4 C-13.2 84.14 -13.2 84.14 -11 86 C-4.16 79.98 0.99 73.72 4 65 C3.67 64.01 3.34 63.02 3 62 Z " fill="#FFFFFF" transform="translate(170,18)"/>
<path d="M0 0 C0.84 2.98 1.67 5.96 2.5 8.94 C2.74 9.79 2.98 10.64 3.22 11.51 C3.45 12.32 3.67 13.13 3.91 13.96 C4.12 14.71 4.33 15.46 4.54 16.23 C5 18 5 18 5 19 C4.31 19.13 3.61 19.25 2.9 19.38 C-16.65 22.22 -16.65 22.22 -34.17 30.65 C-36 32 -36 32 -38 32 C-38.7 29.44 -39.39 26.88 -40.06 24.31 C-40.26 23.59 -40.46 22.87 -40.67 22.13 C-42.62 14.64 -42.62 14.64 -41 11 C-30.3 3.42 -12.98 0 0 0 Z " fill="#FFFFFF" transform="translate(333,144)"/>
<path d="M0 0 C0.59 1.77 0.59 1.77 1.07 4.04 C1.24 4.84 1.42 5.65 1.6 6.49 C1.77 7.34 1.95 8.19 2.12 9.06 C2.31 9.92 2.49 10.77 2.68 11.65 C3.12 13.77 3.56 15.88 4 18 C1.89 19.06 0.36 19.3 -1.96 19.61 C-15.21 21.47 -26.12 24.71 -38 31 C-40.43 24.43 -41.9 17.92 -43 11 C-33.7 5.8 -10.82 -5.41 0 0 Z " fill="#FFFFFF" transform="translate(324,106)"/>
<path d="M0 0 C0.67 2.42 1.34 4.83 2 7.25 C2.19 7.93 2.38 8.61 2.58 9.32 C3.5 12.71 4 15.46 4 19 C2.72 19.16 1.44 19.32 0.12 19.48 C-13.11 21.22 -24.73 23.44 -36 31 C-36.66 31 -37.32 31 -38 31 C-39.65 25.06 -41.3 19.12 -43 13 C-36.03 6.03 -27.22 3.84 -17.81 1.69 C-17.08 1.52 -16.34 1.34 -15.58 1.17 C-10.31 0.04 -5.4 -0.14 0 0 Z " fill="#FFFFFF" transform="translate(314,67)"/>
<path d="M0 0 C2.27 6.25 3.84 12.45 5 19 C4.07 19.01 3.13 19.03 2.17 19.04 C-11.91 19.55 -24.9 22.91 -38 28 C-40.23 21.73 -41.84 15.55 -43 9 C-28.78 2.43 -15.64 -0.81 0 0 Z " fill="#FFFFFF" transform="translate(228,131)"/>
<path d="M0 0 C0.84 2.98 1.67 5.96 2.5 8.94 C2.74 9.79 2.98 10.64 3.22 11.51 C3.45 12.32 3.67 13.13 3.91 13.96 C4.12 14.71 4.33 15.46 4.54 16.23 C5 18 5 18 5 19 C3.9 19.01 2.8 19.03 1.66 19.04 C-10.48 19.37 -21.5 21.39 -32.73 26.16 C-35 27 -35 27 -39 27 C-39.7 24.59 -40.38 22.17 -41.06 19.75 C-41.26 19.07 -41.46 18.39 -41.67 17.68 C-42.41 14.99 -43 12.48 -42.98 9.68 C-39.81 4.26 -28.44 2.71 -22.69 1.19 C-15.14 -0.46 -7.67 -0.27 0 0 Z " fill="#FFFFFF" transform="translate(238,170)"/>
<path d="M0 0 C0.67 2.58 1.34 5.17 2 7.75 C2.19 8.48 2.38 9.21 2.58 9.96 C3.47 13.45 4 16.38 4 20 C3.14 19.94 2.28 19.88 1.39 19.82 C-12.88 19.3 -25.62 23.44 -39 28 C-38.3 24.84 -37.6 23.31 -35.31 21 C-30.48 15.63 -27.27 8.82 -25 2 C-16.6 0.08 -8.6 -0.23 0 0 Z " fill="#FFFFFF" transform="translate(219,92)"/>
</svg>
